HIERARCHY
ROOT Hips
{
	OFFSET -14.64140 90.27770 -84.91600
	CHANNELS 6 Xposition Yposition Zposition Zrotation Xrotation Yrotation
	JOINT Spine
	{
		OFFSET 0.00000 13.20850 -1.60436
		CHANNELS 3 Zrotation Xrotation Yrotation
		JOINT Spine1
		{
			OFFSET 0.00000 8.61716 0.00000
			CHANNELS 3 Zrotation Xrotation Yrotation
			JOINT Spine2
			{
				OFFSET 0.00000 8.61717 0.00000
				CHANNELS 3 Zrotation Xrotation Yrotation
				JOINT Spine3
				{
					OFFSET 0.00000 8.61717 0.00000
					CHANNELS 3 Zrotation Xrotation Yrotation
					JOINT Neck
					{
						OFFSET 0.00000 11.07920 1.10792
						CHANNELS 3 Zrotation Xrotation Yrotation
						JOINT Neck1
						{
							OFFSET 0.00000 7.08032 0.00000
							CHANNELS 3 Zrotation Xrotation Yrotation
							JOINT Head
							{
								OFFSET 0.00000 7.08031 0.00000
								CHANNELS 3 Zrotation Xrotation Yrotation
								End site
								{
									OFFSET 0.00000 0.00000 0.00000
								}
							}
						}
					}
					JOINT RightShoulder
					{
						OFFSET -0.01000 7.91373 5.19711
						CHANNELS 3 Zrotation Xrotation Yrotation
						JOINT RightArm
						{
							OFFSET -18.41580 0.00000 0.00000
							CHANNELS 3 Zrotation Xrotation Yrotation
							JOINT RightForeArm
							{
								OFFSET -29.11090 0.00000 0.00000
								CHANNELS 3 Zrotation Xrotation Yrotation
								JOINT RightHand
								{
									OFFSET -24.65040 0.00000 0.00000
									CHANNELS 3 Zrotation Xrotation Yrotation
									JOINT RightHandThumb1
									{
										OFFSET -5.35114 -0.85590 3.97906
										CHANNELS 3 Zrotation Xrotation Yrotation
										JOINT RightHandThumb2
										{
											OFFSET -4.52789 0.00000 0.00000
											CHANNELS 3 Zrotation Xrotation Yrotation
											JOINT RightHandThumb3
											{
												OFFSET -2.46976 0.00000 0.00000
												CHANNELS 3 Zrotation Xrotation Yrotation
												End site
												{
													OFFSET 0.00000 0.00000 0.00000
												}
											}
										}
									}
									JOINT RightHandIndex1
									{
										OFFSET -14.26970 0.00000 2.88139
										CHANNELS 3 Zrotation Xrotation Yrotation
										JOINT RightHandIndex2
										{
											OFFSET -5.48836 0.00000 0.00000
											CHANNELS 3 Zrotation Xrotation Yrotation
											JOINT RightHandIndex3
											{
												OFFSET -3.01859 0.00000 0.00000
												CHANNELS 3 Zrotation Xrotation Yrotation
												End site
												{
													OFFSET 0.00000 0.00000 0.00000
												}
											}
										}
									}
									JOINT RightHandMiddle1
									{
										OFFSET -14.26970 0.00000 -0.09147
										CHANNELS 3 Zrotation Xrotation Yrotation
										JOINT RightHandMiddle2
										{
											OFFSET -6.17441 0.00000 0.00000
											CHANNELS 3 Zrotation Xrotation Yrotation
											JOINT RightHandMiddle3
											{
												OFFSET -3.56743 0.00000 0.00000
												CHANNELS 3 Zrotation Xrotation Yrotation
												End site
												{
													OFFSET 0.00000 0.00000 0.00000
												}
											}
										}
									}
									JOINT RightHandRing1
									{
										OFFSET -12.69180 0.00000 -3.06433
										CHANNELS 3 Zrotation Xrotation Yrotation
										JOINT RightHandRing2
										{
											OFFSET -5.62556 0.00000 0.00000
											CHANNELS 3 Zrotation Xrotation Yrotation
											JOINT RightHandRing3
											{
												OFFSET -3.56744 0.00000 0.00000
												CHANNELS 3 Zrotation Xrotation Yrotation
												End site
												{
													OFFSET 0.00000 0.00000 0.00000
												}
											}
										}
									}
									JOINT RightHandPinky1
									{
										OFFSET -11.11390 0.00000 -6.03719
										CHANNELS 3 Zrotation Xrotation Yrotation
										JOINT RightHandPinky2
										{
											OFFSET -4.52789 0.00000 0.00000
											CHANNELS 3 Zrotation Xrotation Yrotation
											JOINT RightHandPinky3
											{
												OFFSET -2.46976 0.00000 0.00000
												CHANNELS 3 Zrotation Xrotation Yrotation
												End site
												{
													OFFSET 0.00000 0.00000 0.00000
												}
											}
										}
									}
								}
							}
						}
					}
					JOINT LeftShoulder
					{
						OFFSET 0.01000 7.91373 5.19711
						CHANNELS 3 Zrotation Xrotation Yrotation
						JOINT LeftArm
						{
							OFFSET 18.41580 0.00000 0.00000
							CHANNELS 3 Zrotation Xrotation Yrotation
							JOINT LeftForeArm
							{
								OFFSET 29.11090 0.00000 0.00000
								CHANNELS 3 Zrotation Xrotation Yrotation
								JOINT LeftHand
								{
									OFFSET 24.65040 0.00000 0.00000
									CHANNELS 3 Zrotation Xrotation Yrotation
									JOINT LeftHandThumb1
									{
										OFFSET 5.35114 -0.85590 3.97906
										CHANNELS 3 Zrotation Xrotation Yrotation
										JOINT LeftHandThumb2
										{
											OFFSET 4.52789 0.00000 0.00000
											CHANNELS 3 Zrotation Xrotation Yrotation
											JOINT LeftHandThumb3
											{
												OFFSET 2.46977 0.00000 0.00000
												CHANNELS 3 Zrotation Xrotation Yrotation
												End site
												{
													OFFSET 0.00000 0.00000 0.00000
												}
											}
										}
									}
									JOINT LeftHandIndex1
									{
										OFFSET 14.26970 0.00000 2.88139
										CHANNELS 3 Zrotation Xrotation Yrotation
										JOINT LeftHandIndex2
										{
											OFFSET 5.48836 0.00000 0.00000
											CHANNELS 3 Zrotation Xrotation Yrotation
											JOINT LeftHandIndex3
											{
												OFFSET 3.01859 0.00000 0.00000
												CHANNELS 3 Zrotation Xrotation Yrotation
												End site
												{
													OFFSET 0.00000 0.00000 0.00000
												}
											}
										}
									}
									JOINT LeftHandMiddle1
									{
										OFFSET 14.26970 0.00000 -0.09147
										CHANNELS 3 Zrotation Xrotation Yrotation
										JOINT LeftHandMiddle2
										{
											OFFSET 6.17440 0.00000 0.00000
											CHANNELS 3 Zrotation Xrotation Yrotation
											JOINT LeftHandMiddle3
											{
												OFFSET 3.56744 0.00000 0.00000
												CHANNELS 3 Zrotation Xrotation Yrotation
												End site
												{
													OFFSET 0.00000 0.00000 0.00000
												}
											}
										}
									}
									JOINT LeftHandRing1
									{
										OFFSET 12.69180 0.00000 -3.06433
										CHANNELS 3 Zrotation Xrotation Yrotation
										JOINT LeftHandRing2
										{
											OFFSET 5.62556 0.00000 0.00000
											CHANNELS 3 Zrotation Xrotation Yrotation
											JOINT LeftHandRing3
											{
												OFFSET 3.56744 0.00000 0.00000
												CHANNELS 3 Zrotation Xrotation Yrotation
												End site
												{
													OFFSET 0.00000 0.00000 0.00000
												}
											}
										}
									}
									JOINT LeftHandPinky1
									{
										OFFSET 11.11390 0.00000 -6.03719
										CHANNELS 3 Zrotation Xrotation Yrotation
										JOINT LeftHandPinky2
										{
											OFFSET 4.52789 0.00000 0.00000
											CHANNELS 3 Zrotation Xrotation Yrotation
											JOINT LeftHandPinky3
											{
												OFFSET 2.46976 0.00000 0.00000
												CHANNELS 3 Zrotation Xrotation Yrotation
												End site
												{
													OFFSET 0.00000 0.00000 0.00000
												}
											}
										}
									}
								}
							}
						}
					}
					JOINT pCube4
					{
						OFFSET 0.00000 10.91090 1.10792
						CHANNELS 3 Zrotation Xrotation Yrotation
						End site
						{
							OFFSET 0.00000 0.00000 0.00000
						}
					}
				}
			}
		}
	}
	JOINT RightUpLeg
	{
		OFFSET -9.98441 0.00000 0.00000
		CHANNELS 3 Zrotation Xrotation Yrotation
		JOINT RightLeg
		{
			OFFSET 0.00000 -42.11790 0.00000
			CHANNELS 3 Zrotation Xrotation Yrotation
			JOINT RightFoot
			{
				OFFSET 0.00000 -45.00020 -0.00001
				CHANNELS 3 Zrotation Xrotation Yrotation
				JOINT RightForeFoot
				{
					OFFSET 0.00000 -3.74820 0.00000
					CHANNELS 3 Zrotation Xrotation Yrotation
					JOINT RightToeBase
					{
						OFFSET 0.00000 0.06325 14.43120
						CHANNELS 3 Zrotation Xrotation Yrotation
						End site
						{
							OFFSET 0.00000 0.00000 0.00000
						}
					}
				}
			}
		}
	}
	JOINT LeftUpLeg
	{
		OFFSET 9.98441 0.00000 0.00000
		CHANNELS 3 Zrotation Xrotation Yrotation
		JOINT LeftLeg
		{
			OFFSET 0.00000 -42.11800 0.00000
			CHANNELS 3 Zrotation Xrotation Yrotation
			JOINT LeftFoot
			{
				OFFSET 0.00000 -45.00070 0.00000
				CHANNELS 3 Zrotation Xrotation Yrotation
				JOINT LeftForeFoot
				{
					OFFSET 0.00000 -3.74824 0.00000
					CHANNELS 3 Zrotation Xrotation Yrotation
					JOINT LeftToeBase
					{
						OFFSET 0.00000 0.06325 14.43110
						CHANNELS 3 Zrotation Xrotation Yrotation
						End site
						{
							OFFSET 0.00000 0.00000 0.00000
						}
					}
				}
			}
		}
	}
}
MOTION
Frames: 4
Frame Time: 0.050000
-0.012241202990661653 0.02725763166392863 0.046714029360313485 0.049483707844374725 0.01154465580425589 -0.03207700990472615 -2.7784962295746514 0.475584366167199 -0.7543953550745243 -1.0209754478473358 3.5159924573002432 0.3295768398028637 -0.8957286824618006 -2.0722130042605507 -2.535820437612898 -0.8580553615955498 0.2749216617967942 -1.0024310915540042 -2.2635835059267246 12.364106494054614 6.007987228476066 -0.15051620673215246 0.07724578882206282 13.449704704187571 -1.9232001566294048 -14.603693984652473 1.177298991901193 -2.736346493480502 1.4660631553338126 -13.489223723983827 69.9063400814373 28.863035060990843 0.31882241730333943 8.167973727073855 -0.9353358784186814 84.37712367741591 17.912050479842815 -0.4278744035912948 -3.9591898364407734 4.564723907900887 -0.09382111490799981 -1.6305219069987502 0.04870661015893179 -0.0015569932757020582 -56.231398885763454 0.012782475592671719 0.03242756338750544 -56.24578546697658 -38.726963709587004 -0.010839424283577528 -0.0032281538215795853 -0.015603197314594123 0.016556111268977144 0.008123328901333812 -0.0493249961193841 0.04058934122554601 -0.030121376154689163 -36.65195983625218 -0.01960741821756179 0.012953641781137441 0.006364096017046441 0.024340287209368858 -0.013057074548295775 -0.031639736614487414 -0.022162004283158187 -0.012012961029933293 -19.718771592667316 0.002762772379763594 -0.021233822771528296 0.00523297874633133 -0.04460147881210473 0.017282417992772477 -0.0180078795608078 0.03301025960529247 0.04742526876388277 24.015374361659028 0.011839697709232294 -0.03279309950323866 28.86208956146807 0.015147894433746707 -0.011578340806661116 28.886551769964505 0.006458949016810428 -0.021814267835556626 9.83823022173653 2.088036253897703 12.34928346557351 -69.04350620006387 15.83764217841148 -23.029601280423304 -20.344684690876566 -12.32680904601487 -77.7039098159808 -5.933435658255183 -2.965812663755534 0.18276295154442768 -0.4526166707286815 0.03616789400891135 -8.131317144443363 0.035287861243947234 0.004263596478221087 44.58349430098255 -0.011845594253434889 0.042535767862324055 44.6108332246234 12.437022028209293 0.008151950385635466 0.03906591691547702 0.029193455958413394 -0.011583466694104814 0.010855418291625773 0.018080984862330125 -0.038793845042941234 0.0483970478833959 11.099724686354774 0.017709316601835907 -0.014941532158203194 0.03249586508375658 0.03495755245708169 0.011760904384637887 0.04068959160303331 -0.015077630536622663 -0.042749028247293604 4.759676285949226 -0.02258946732787611 -0.024545120868912158 -0.04206124761361775 0.03430789156106219 -0.04566378674531443 0.005269406524579629 0.007966068862161679 -0.043413686216813116 -5.560999990792378 0.0004248738836323056 0.009814677323097104 -6.73906940817571 0.023287644089667884 -0.017240000704522484 -6.719229156129973 0.030331083225071644 -0.011899709583472681 0.011850353435036135 0.04922404693964822 0.024353215564243698 8.033318563421915 3.4661193064753966 -19.23337110457679 0.026876798519833094 10.438640890760942 0.06081274122610465 -5.584790397025794 -15.687052228306062 3.14924068670589 -0.0006075700042025938 0.04165318754159702 0.009972590429607303 0.045730242602873075 4.688446623911188 0.008363347903335289 12.485632939987873 -8.225924327172478 6.87378376974414 0.031455907629161055 46.35851322244759 0.03183010722530043 -4.3699300764501885 -14.752205242083095 -3.8158102686932036 -0.011449662434771779 0.024596074437522892 -0.03828577416135912 0.010530454923215733 -10.736660981781963 0.04090027651635636 
0.00845575139148305 0.003605968358651062 0.02161189160256176 -0.011902635848206463 0.0024246758994883816 0.004925804352702491 -2.7629700901234266 0.5400792300903489 -0.7756898818272769 -1.0051015536754344 3.4875226906729946 0.37909171119044793 -0.9203126646929765 -2.022538424752792 -2.749829299440914 -0.7884479916605476 0.3412078297716455 -1.0264776622692338 -2.269941322755231 12.289570935986712 5.958934355671034 -0.13278854343621113 0.1078370937652372 13.34802408030478 -1.8712598983924744 -14.604027772194026 1.1714660661927283 -2.801746109710346 1.439888294414313 -13.318045618723485 69.81597326905693 28.388286831758457 0.7316184477986807 8.997269131220486 -0.5209380826360872 83.37004963418507 18.095108384657458 -0.4263692206501288 -4.096317127962635 4.54289062088593 -0.17444989014602874 -1.5654727040825922 0.014689855660838906 -0.036815338940699646 -56.26499237327599 0.04285561448848674 -0.013740392354488137 -56.20148140269092 -38.802453308769955 0.03247095527609623 -0.009638198879064218 -0.04787307040834891 0.0029399098884789502 -0.01157092344290718 0.03561826219364942 -0.018042573352824786 -0.0111907445027675 -36.65608038096547 0.00516120914192086 -0.02234639881193195 -0.017809009912618023 0.00379592055995755 0.011799421384462763 0.045369157362328376 0.02677822853188869 -0.020938604455176493 -19.764758997746092 0.007333253453487768 0.034114114249775986 -0.046493980453804484 0.021580674375333248 -0.01864033533551559 -0.017742550875865643 -0.02973823249225602 -0.000946307985094799 24.055710869792744 -0.040843382457284395 0.02148700695263572 28.889181878076283 0.03580615774069467 0.03912041012736409 28.88639180883016 0.012810942315403405 -0.008899712708755761 9.990995352661091 2.131074836585651 12.19336548693879 -68.26612202217093 15.518031363932034 -24.634502759756 -17.19390152961094 -13.2261831354043 -76.9359306297702 -5.774642493289884 -2.8148590078449636 0.5626228463643326 -0.49405787190155137 0.10967337001264023 -8.11226012540625 0.029023365758587057 -0.04443362579472972 44.59958269951956 -0.015039983118871895 0.013487209786409772 44.552361874575375 12.44746363366008 0.00973721010616258 -0.005476467471157802 0.006176212725608643 -0.03237075077255146 0.005079250956498321 0.03289672275349036 -0.0038863038544504733 -0.02966629208183606 11.145759809781433 -0.01851898968736199 0.02845026909123026 0.0006448945298578851 0.03407753718713667 -0.0041923789473396695 0.04501479369799575 0.014887027169300241 0.023353623864418218 4.769983842921948 -0.017949362922614183 0.027619264016835787 0.045236112243792016 -0.0046515373714546985 -0.008789981870260236 -0.015700733909492524 -0.011863823826812682 -0.005792564697611425 -5.5630047941550425 0.0248377081023847 -0.014093963991912309 -6.757583400384291 0.004896985409723526 -0.003862775949041731 -6.7226767969112355 0.013538103214983213 0.030759743998923287 0.03979845507689062 0.047875620147314925 0.03062260535736801 8.080007963508127 3.5402564152188756 -19.206919383262232 0.012445049133540277 10.430850311221345 -0.015003903258211111 -5.6241066614638555 -15.699476668380733 3.2240309858077865 -0.002924119509143003 -0.0002203024768190668 0.026245522167123114 -0.008672944749023258 4.6864814257485286 -0.04727458588094232 12.445398772721829 -8.189290114637096 6.839281015784088 -0.02539295771925825 46.40870987043649 0.005020588200408801 -4.362095170268891 -14.7594627636284 -3.8492075578988825 0.03576179675147661 -0.002887785686744978 -0.0073090536285539956 -0.018277234551837232 -10.752657357086338 0.01093506570686037 
-0.022139312952746792 0.022639800699827236 0.010249757110820086 -0.02147716124371631 -0.007202003626871234 0.025783600770325755 -2.648021193789578 0.5764055535751401 -0.7699970268319589 -0.9395881056275521 3.4548685274360356 0.371432158884586 -0.9028531518005626 -2.036993378387481 -2.923279224385848 -0.7204026893782631 0.3181444797432852 -1.0265231148512592 -2.2324871853165216 12.280031925606318 5.7607878232756935 -0.13591327698029915 0.11846691292010993 13.01905247227569 -1.9508817053483383 -14.644773437848075 1.1406063406460578 -2.88869578855217 1.411890312694619 -13.178309830780101 69.56607939729301 27.985518031732116 1.421669966501815 10.717936025222812 -0.18192366948671426 83.11432266922175 18.548823899074357 -0.394327274077333 -4.348724959589787 4.561088311943853 -0.1155828711573769 -1.5801195163456996 0.014408819752895208 -0.04462646065479934 -56.20843090229438 -0.040482876091208674 -0.002210132087774357 -56.226970016058154 -38.80988422081523 -0.04186043484987169 0.04788729136097132 -0.04922017069378769 -0.008541188513873203 -0.04044820534184137 -0.03201236230924077 -0.0274372726001723 0.03511083101693704 -36.73624177222199 -0.0005093378080201156 0.028574546328866753 -0.02372324198368653 -0.047902379010272514 -0.007232221828726563 -0.017729881826468594 0.033681186539411434 -0.03906890232796551 -19.772260212875054 0.03997016204490678 -0.035978413121092484 -0.006475907064431651 0.0232132174193803 0.03338315626924921 -0.0199349985553323 0.03391481114499992 0.0205701850435145 24.04677566267496 0.03411854821820042 -0.026353257773986515 28.85696697150744 -0.030918586443644303 0.045092031553377696 28.89872273624274 0.03343338316203782 0.046547486694231976 10.158465165800816 2.140748971578368 11.921614291161069 -67.33150414349069 15.305725992113233 -26.21710994764249 -15.642723956493832 -13.710992537218415 -75.81685765646185 -6.321518467621073 -2.8808139432568236 1.0811087829166288 -0.441436225624779 0.10929010792573318 -8.081774992367697 0.0348829927380987 0.04486278776877231 44.55094141090683 -0.027044866467636597 -0.03526384729653051 44.56002418422268 12.453758527896623 0.037983765825105355 0.008535698181256282 0.015246481157224115 -0.048651733427692585 -0.002682220027965188 0.030884287430028058 -0.010717761125885237 -0.0025838103335123273 11.10351665261551 0.008253855026288604 0.04016628539417778 0.022633227538667953 -0.026405718422227973 -0.009541554109491732 -0.008377839822373013 0.04358697201527108 0.01891675077482488 4.734526064089493 -0.006075207852155445 -0.015966202913487958 -0.0043940677908461175 0.038914267129234875 0.001885051822277295 -0.03608428803613323 0.030423642223765826 -0.034554094522001956 -5.627043549366765 0.04313674118709012 0.01529367070812713 -6.763067630501798 -0.01142603620210338 0.01017920502493542 -6.745714089655808 -0.011833485177310747 0.01785066769937383 -0.0033837991322568455 -0.043590057269018954 -0.021592528109029428 8.043511390549064 3.479102942004644 -19.230668030223498 0.020731365323168174 10.414281967155238 -0.023779729279827484 -5.6237381877839026 -15.69261516144159 3.1966877987848727 -0.04598327656190989 -0.0001310808484004101 -0.0008894626654271587 -0.010923676888639681 4.713891950123676 -5.845122193828584e-05 12.429752518615262 -8.242190924381529 6.862128114928985 -0.026627947519137714 46.40304524953415 -0.0019526169961006318 -4.347112582132242 -14.774566178758457 -3.8462510273939836 -0.04546085473518117 0.03412357048036508 -0.006640128805296321 0.021815968257405623 -10.724282231079439 0.03321756960235077 
0.018617785297921595 0.012613794260527032 0.004180360326438137 -0.02127838787565005 0.048052075387215565 -0.036487146847028765 -2.7005176967307705 0.6728390331810505 -0.8337066098386611 -0.9829042137254619 3.5010446603041743 0.36459333739308597 -0.8522101073753796 -1.9666445510729644 -3.0164558559308197 -0.6456736883515268 0.3314146751453134 -1.0298446014604938 -2.2036903144916176 12.204470773392046 5.561280538822208 -0.18629956706223794 0.04484517770730734 12.6433570586118 -1.9078180668488547 -14.774616523976814 1.113806217781527 -2.976221068940532 1.4499105250114201 -13.130600877233231 69.36875832333274 27.408464539777153 1.9979320588949296 11.844303068853984 0.12640353824928713 81.79067771771324 18.882427202592638 -0.40951263739043275 -4.498946659445218 4.531345209074595 -0.167190291522246 -1.5699623407452172 0.029340341349918635 0.03860712144037069 -56.221072205748506 -0.016732109816507027 -0.022821197308515007 -56.202781612631306 -38.76873460401955 0.022139196157682596 0.028228516367118275 -0.04279798157487984 0.030617553688021295 -0.0356779685727923 -0.04831683330441295 -0.03223676178203366 0.007974825126038133 -36.7060189913161 0.025600107946813156 -0.008605908087655005 -0.022793386638306417 -2.0499417727533555e-05 -0.02377122171794976 -0.04168719762558521 0.047882791884401824 0.021144437806114542 -19.718732297782296 0.047355577237393066 -0.022640251590848436 -0.027360490503661926 -0.012233103159661194 -0.009265602359355377 -0.00842217970500671 -0.0018975658475531615 -0.001488229990722474 24.04738059801228 0.0208109544206284 0.030495254272714968 28.907062547403203 0.010531515187557842 -0.035494765680787445 28.885863906581047 0.02302313544744005 -0.03223936378154201 10.12462698041421 2.1795191105528122 11.73085887557064 -66.2639113250292 15.296948669627469 -27.38461942759345 -13.90421726745973 -14.175463359160428 -73.79428969638568 -6.841853047176435 -3.016972586061124 1.8724968135356852 -0.490318489919851 0.03242483402146434 -8.081903969715075 -0.024371645968066513 -0.009103451432097618 44.59639660242449 -0.0016045497608248981 0.04290517850189842 44.55502332539518 12.454705106825374 0.028601400441503316 0.0474417962119527 0.005997603475663453 0.018195290576358204 -0.043881354579387105 0.039196770844974485 -0.02549179627552551 0.013251973444115028 11.075776169145266 0.04926318190295258 -0.0029994487336851743 -0.010275218873431847 0.015068692550863886 0.04367369920369476 0.03138925650869261 0.024918290219148466 0.04279685182430793 4.761227313893257 0.008937967624964857 -0.01676893359413359 0.019509971638521206 -0.027360510964225045 0.01686247266979627 0.039412450272660327 -0.024489257434041584 0.040379508119209435 -5.6131895027651115 0.01423029368206645 0.011001669998151595 -6.746826245078329 -0.029180726471422683 0.00791270766153419 -6.727516807059085 -0.0370567916965546 0.03812297960453125 0.01563956910976111 -0.042235227294936416 -0.023972259221313356 8.066493843896128 3.4743300065437497 -19.26476014224248 -0.0008720240570395303 10.381360950313287 0.05576573235037165 -5.592286893876836 -15.69384001504256 3.204634125662309 -0.01708780032326026 -0.037732620953172 -0.04576107837161305 -0.04685056073652925 4.710169380122171 -0.0034917399912484624 12.469509359374317 -8.272385657499889 6.894891162601564 -0.03011371169149204 46.40329098759496 0.014808174519977008 -4.325380750077284 -14.74452483946508 -3.832047036416976 0.00978891214511975 -0.017429112355824505 -0.0011498428771316987 -0.020375470432030907 -10.718987365569879 -0.012166487822295914 
